<svg width="40" height="38" viewBox="0 0 40 38" fill="none" xmlns="http://www.w3.org/2000/svg">
<g clip-path="url(#clip0)">
<path d="M37.7923 38.0001C39.0114 38.0001 40 37.0611 40 35.9029V2.09727C40 0.938867 39.0114 0 37.7923 0H2.20766C0.988125 0 0 0.938867 0 2.09727V35.9029C0 37.0611 0.988125 38.0001 2.20766 38.0001H37.7923Z" fill="#395185"/>
<path d="M27.5992 38.0001V23.2845H32.7987L33.5772 17.5496H27.5992V13.888C27.5992 12.2275 28.0847 11.096 30.5911 11.096L33.7878 11.0947V5.9654C33.2347 5.89549 31.3372 5.73933 29.1297 5.73933C24.5206 5.73933 21.3653 8.41195 21.3653 13.3202V17.5496H16.1525V23.2845H21.3653V38.0001H27.5992Z" fill="white"/>
</g>
<defs>
<clipPath id="clip0">
<rect width="40" height="38" fill="white"/>
</clipPath>
</defs>
</svg>
