<svg width="44" height="39" viewBox="0 0 44 39" fill="none" xmlns="http://www.w3.org/2000/svg">
<path fill-rule="evenodd" clip-rule="evenodd" d="M22 0C9.845 0 0 8.72625 0 19.5C0 28.1287 6.2975 35.4169 15.0425 38.0006C16.1425 38.1712 16.555 37.5862 16.555 37.0744C16.555 36.6112 16.5275 35.0756 16.5275 33.4425C11 34.3444 9.57 32.2481 9.13 31.1512C8.8825 30.5906 7.81 28.86 6.875 28.3969C6.105 28.0312 5.005 27.1294 6.8475 27.105C8.58 27.0806 9.8175 28.5187 10.23 29.1037C12.21 32.0531 15.3725 31.2244 16.6375 30.7125C16.83 29.445 17.4075 28.5919 18.04 28.1044C13.145 27.6169 8.03 25.935 8.03 18.4762C8.03 16.3556 8.8825 14.6006 10.285 13.2356C10.065 12.7481 9.295 10.7494 10.505 8.06812C10.505 8.06812 12.3475 7.55625 16.555 10.0669C18.315 9.62812 20.185 9.40875 22.055 9.40875C23.925 9.40875 25.795 9.62812 27.555 10.0669C31.7625 7.53187 33.605 8.06812 33.605 8.06812C34.815 10.7494 34.045 12.7481 33.825 13.2356C35.2275 14.6006 36.08 16.3312 36.08 18.4762C36.08 25.9594 30.9375 27.6169 26.0425 28.1044C26.84 28.7137 27.5275 29.8837 27.5275 31.7119C27.5275 34.32 27.5 36.4162 27.5 37.0744C27.5 37.5862 27.9125 38.1956 29.0125 38.0006C33.3798 36.6937 37.1748 34.2057 39.8634 30.887C42.5519 27.5682 43.9987 23.5857 44 19.5C44 8.72625 34.155 0 22 0Z" fill="black"/>
</svg>
