<svg width="60" height="60" viewBox="0 0 60 60" fill="none" xmlns="http://www.w3.org/2000/svg">
<g clip-path="url(#clip0)">
<path d="M16.2775 32.5C15.8552 32.5021 15.4335 32.5314 15.015 32.5875C14.57 32.645 14.1625 32.7625 13.7925 32.945C13.432 33.1216 13.1158 33.3771 12.8675 33.6925C12.6225 34.0075 12.5 34.4275 12.5 34.9425C12.5 35.9 12.8025 36.5675 13.41 36.9425C14.015 37.3125 14.8375 37.5 15.88 37.5C16.505 37.5 17.06 37.485 17.5425 37.4575C18.025 37.4275 18.4275 37.3775 18.75 37.3V32.845C18.4551 32.7192 18.1435 32.6366 17.825 32.6C17.3125 32.5271 16.7951 32.4936 16.2775 32.5ZM48.2125 39.425C47.785 38.715 47.2875 37.99 46.73 37.25C46.1742 36.5141 45.5879 35.8018 44.9725 35.115C44.3842 34.4577 43.7617 33.8318 43.1075 33.24C42.5398 32.7212 41.9366 32.2426 41.3025 31.8075V39.4275H38.46V16.265L41.3025 15.7775V30.2225L42.925 28.6075C43.515 28.0175 44.095 27.42 44.665 26.81C45.2375 26.2 45.7775 25.615 46.285 25.0575C46.795 24.5 47.235 24.0075 47.6 23.58H50.935C50.465 24.0875 49.955 24.645 49.405 25.255C48.855 25.865 48.285 26.48 47.6925 27.0975C47.1 27.72 46.505 28.34 45.905 28.9575L44.2075 30.71C44.8175 31.18 45.465 31.7575 46.15 32.4475C46.8325 33.1375 47.5025 33.885 48.1675 34.6875C48.83 35.49 49.455 36.3025 50.0475 37.1275C50.6375 37.95 51.1375 38.715 51.5475 39.4275L48.2125 39.425ZM33.8275 38.665C32.7375 39.415 31.185 39.7925 29.1675 39.7925C27.76 39.7925 26.66 39.6775 25.865 39.4425C25.3162 39.292 24.7755 39.1134 24.245 38.9075L24.765 36.4725C25.09 36.595 25.61 36.775 26.3225 37.0225C27.0375 37.2625 27.985 37.385 29.1675 37.385C30.3275 37.385 31.19 37.235 31.75 36.9275C32.31 36.6225 32.59 36.135 32.59 35.465C32.5996 35.1439 32.5293 34.8255 32.3853 34.5383C32.2413 34.2511 32.0281 34.0043 31.765 33.82C31.215 33.4125 30.3075 32.9575 29.045 32.4475C28.4522 32.2131 27.8653 31.9639 27.285 31.7C26.7624 31.4695 26.2744 31.1674 25.835 30.8025C25.4272 30.4564 25.0938 30.0312 24.855 29.5525C24.5946 28.99 24.4688 28.3746 24.4875 27.755C24.4875 26.355 25.0075 25.24 26.0475 24.4175C27.0875 23.5925 28.505 23.1825 30.2975 23.1825C30.745 23.1825 31.195 23.2075 31.6425 23.26C32.0925 23.31 32.51 23.37 32.8975 23.4425C33.4776 23.5478 34.0491 23.6957 34.6075 23.885L34.0875 26.3225C33.6278 26.1059 33.1469 25.9375 32.6525 25.82C31.8817 25.6341 31.0903 25.5467 30.2975 25.56C29.5025 25.56 28.81 25.7175 28.2175 26.0325C27.9412 26.1649 27.7098 26.3754 27.552 26.6381C27.3943 26.9007 27.3171 27.2039 27.33 27.51C27.33 27.8575 27.3975 28.16 27.53 28.425C27.6777 28.7071 27.887 28.9524 28.1425 29.1425C28.4175 29.355 28.7575 29.5525 29.1675 29.735C29.5725 29.92 30.0625 30.11 30.635 30.315C31.385 30.6 32.06 30.88 32.6525 31.1525C33.2425 31.4275 33.7475 31.7475 34.165 32.1125C34.5825 32.4775 34.905 32.92 35.1275 33.4375C35.3525 33.9575 35.465 34.5925 35.465 35.345C35.465 36.8075 34.92 37.915 33.8275 38.665ZM21.4025 39.1525L20.3775 39.3225C19.94 39.3925 19.445 39.46 18.8925 39.52C18.3425 39.58 17.7475 39.635 17.105 39.6875C16.465 39.7375 15.8275 39.7625 15.195 39.7625C14.362 39.7696 13.5311 39.6773 12.72 39.4875C12.0165 39.3284 11.3508 39.0337 10.76 38.62C10.2044 38.2159 9.76261 37.6751 9.4775 37.05C9.1725 36.4 9.0175 35.6175 9.0175 34.705C9.0175 33.83 9.195 33.08 9.5525 32.4475C9.91 31.82 10.395 31.31 11.0075 30.9225C11.6671 30.5191 12.3909 30.2316 13.1475 30.0725C13.9906 29.8864 14.8516 29.7942 15.715 29.7975C16.3045 29.8031 16.8925 29.8591 17.4725 29.965C17.8553 30.035 18.237 30.1108 18.6175 30.1925V29.4C18.6175 28.9325 18.5675 28.47 18.4675 28.015C18.3726 27.574 18.1851 27.1582 17.9175 26.795C17.6321 26.4243 17.2581 26.1312 16.83 25.9425C16.37 25.7275 15.775 25.62 15.0425 25.62C14.105 25.62 13.2825 25.6875 12.58 25.82C12.0433 25.9072 11.516 26.0444 11.005 26.23L10.67 23.885C11.0375 23.7225 11.6475 23.565 12.505 23.41C13.36 23.26 14.2875 23.1825 15.2875 23.1825C16.4275 23.1825 17.39 23.3325 18.175 23.625C18.96 23.92 19.5925 24.3375 20.07 24.875C20.55 25.4125 20.89 26.0525 21.095 26.795C21.3 27.5375 21.4 28.355 21.4 29.2475L21.4025 39.1525ZM60 29.9025C60 13.39 46.5675 0 30 0C13.4325 0 0 13.39 0 29.9025C0 46.42 13.4325 59.81 30 59.81C35.4425 59.81 40.5425 58.36 44.945 55.8325L60 60L56.22 44.435C58.7042 39.9947 60.0058 34.9905 60 29.9025Z" fill="#265CFF"/>
</g>
<defs>
<clipPath id="clip0">
<rect width="60" height="60" fill="white"/>
</clipPath>
</defs>
</svg>
