<svg width="874" height="590" viewBox="0 0 874 590" fill="none" xmlns="http://www.w3.org/2000/svg">
<g clip-path="url(#clip0)">
<path opacity="0.1" d="M494.36 80.3257C438.338 80.399 384.414 64.8702 332.836 47.6192C281.258 30.3682 230.077 11.0506 175.097 2.86482C139.737 -2.39695 99.5285 -1.91328 71.8884 17.1918C45.2825 35.5714 37.578 65.9914 33.8607 94.0957C31.0652 115.238 29.7761 137.428 40.2461 156.768C47.5159 170.194 59.9569 181.259 68.7257 194.055C99.3337 238.567 80.9269 295.428 51.1807 340.974C37.2333 362.343 20.895 382.826 10.3501 405.42C-0.194867 428.013 -4.51926 453.633 6.23552 475.933C16.8929 498.036 40.9656 514.077 66.7995 525.033C119.262 547.326 180.343 552.104 239.783 553.944C371.358 558.026 503.189 549.701 634.667 541.376C683.322 538.298 732.194 535.198 779.845 526.279C806.301 521.332 833.544 513.989 852.303 497.896C876.113 477.465 880.985 444.106 863.657 420.128C834.601 379.91 757.983 372.325 737.148 328.809C725.659 304.852 735.567 277.378 750.159 254.287C781.456 204.74 835.328 160.359 836.235 104.942C836.857 66.8855 808.842 29.76 766.999 13.2198C723.141 -4.10446 663.341 0.351193 632.613 32.64C601.016 65.9035 543.825 80.2744 494.36 80.3257Z" fill="#536DFE"/>
<path d="M743.863 472.944C743.863 472.944 734.652 467.001 725.524 471.229C725.524 471.229 728.335 476.52 739.891 476.022L743.863 472.944Z" fill="#536DFE"/>
<path d="M745.033 473.259C745.033 473.259 747.835 483.695 740.806 490.796C740.806 490.796 736.579 486.494 740.806 475.956L745.033 473.259Z" fill="#536DFE"/>
<path d="M756.484 463.241C756.484 463.241 755.802 454.366 735.305 457.312C735.305 457.312 735.207 463.036 742.402 465.747C749.597 468.459 752.894 466.172 756.484 463.241Z" fill="#536DFE"/>
<path d="M757.773 463.182C757.773 463.182 766.437 465.901 758.71 484.699C758.71 484.699 752.992 483.453 751.965 475.97C750.938 468.488 753.981 465.909 757.773 463.182Z" fill="#536DFE"/>
<path d="M769.345 450.592C769.345 450.592 770.522 435.987 749.574 437.482C749.574 437.482 748.075 450.673 765.65 454.103L769.345 450.592Z" fill="#536DFE"/>
<path d="M783.188 434.103C783.188 434.103 780.317 417.549 759.377 422.481C759.377 422.481 759.302 436.793 779.77 438.046L783.188 434.103Z" fill="#536DFE"/>
<path d="M793.305 417.058C793.305 417.058 788.494 400.935 767.749 405.757C767.749 405.757 772.688 420.26 791.926 420.033L793.305 417.058Z" fill="#536DFE"/>
<path d="M802.914 400.408C802.914 400.408 798.214 383.677 778.181 388.682C778.181 388.682 784.867 404.577 801.587 403.236L802.914 400.408Z" fill="#536DFE"/>
<path d="M809.104 384.593C809.104 384.593 805.492 364.132 786.815 368.661C786.815 368.661 792.241 387.275 807.732 387.576L809.104 384.593Z" fill="#536DFE"/>
<path d="M814.912 365.488C814.912 365.488 810.573 344.866 791.679 350.831C791.679 350.831 799.084 370.325 813.571 368.309L814.912 365.488Z" fill="#536DFE"/>
<path d="M818.48 347.709C818.48 347.709 811.592 327.08 796.985 327.637C796.985 327.637 804.023 349.424 817.258 351.821L818.48 347.709Z" fill="#536DFE"/>
<path d="M820.788 330.356C820.788 330.356 813.293 305.527 801.407 307.44C801.407 307.44 806.593 326.42 820.368 334.225L820.788 330.356Z" fill="#536DFE"/>
<path d="M822.092 309.653C822.092 309.653 815.062 288.965 803.356 288.137C803.356 288.137 808.137 308.495 821.86 315.032L822.092 309.653Z" fill="#536DFE"/>
<path d="M823.509 290.336C823.509 290.336 814.747 269.626 807.021 269.157C807.021 269.157 810.828 289.551 822.759 293.736L823.509 290.336Z" fill="#536DFE"/>
<path d="M824.476 272.366C824.476 272.366 819.087 249.876 811.345 248.007C811.345 248.007 812.402 266.408 823.696 274.052L824.476 272.366Z" fill="#536DFE"/>
<path d="M827.398 248.828C827.398 248.828 821.732 230.895 815.459 228.162C815.459 228.162 816.696 249.304 825.952 253.21L827.398 248.828Z" fill="#536DFE"/>
<path d="M829.819 233.438L830.958 201.823C830.958 201.823 819.229 225.655 828.972 238.986L829.819 233.438Z" fill="#536DFE"/>
<path d="M838.873 201.992C838.873 201.992 847.319 178.908 849.365 177.618C849.365 177.618 832.802 192.597 834.421 211.863L838.873 201.992Z" fill="#536DFE"/>
<path d="M769.915 450.482C769.915 450.482 784.769 448.584 784.327 469.111C784.327 469.111 770.904 471.251 766.52 454.271L769.915 450.482Z" fill="#536DFE"/>
<path d="M783.892 433.547C783.892 433.547 801.055 433.495 799.631 454.506C799.631 454.506 785.219 457.027 780.467 437.518L783.892 433.547Z" fill="#536DFE"/>
<path d="M793.47 418.413C793.47 418.413 809.051 411.268 819.019 429.714C819.019 429.714 804.63 435.664 792.091 421.396L793.47 418.413Z" fill="#536DFE"/>
<path d="M803.258 400.562C803.258 400.562 819.214 392.962 828.583 410.975C828.583 410.975 811.96 416.574 801.939 403.412L803.258 400.562Z" fill="#536DFE"/>
<path d="M808.902 385.04C808.902 385.04 824.258 370.698 836.512 385.201C836.512 385.201 820.826 397.007 808.197 388.235L808.902 385.04Z" fill="#536DFE"/>
<path d="M814.043 364.997C814.043 364.997 829.489 350.34 841.646 365.671C841.646 365.671 824.311 377.712 813.488 368.075L814.043 364.997Z" fill="#536DFE"/>
<path d="M816.928 347.123C816.928 347.123 828.83 328.802 842.845 332.891C842.845 332.891 830.494 352.29 817.063 351.425L816.928 347.123Z" fill="#536DFE"/>
<path d="M820.436 330.238C820.436 330.238 832.427 307.169 843.774 311.185C843.774 311.185 835.125 328.919 820.129 334.13L820.436 330.238Z" fill="#536DFE"/>
<path d="M821.268 308.451C821.268 308.451 833.596 290.292 845.146 292.512C845.146 292.512 835.065 310.928 820.069 313.706L821.268 308.451Z" fill="#536DFE"/>
<path d="M822.227 289.932C822.227 289.932 831.783 269.552 839.547 269.413C839.547 269.413 834.96 289.647 822.872 293.391L822.227 289.932Z" fill="#536DFE"/>
<path d="M824.101 271.927C824.101 271.927 834.721 251.29 842.702 251.246C842.702 251.246 837.269 268.893 824.453 273.737L824.101 271.927Z" fill="#536DFE"/>
<path d="M825.697 250.117C825.697 250.117 833.641 233.042 840.222 231.108C840.222 231.108 836.25 251.92 826.574 254.646L825.697 250.117Z" fill="#536DFE"/>
<path d="M830.763 232.815L848.518 206.367C848.518 206.367 843.969 232.456 828.17 237.879L830.763 232.815Z" fill="#536DFE"/>
<path d="M842.95 204.125C842.95 204.125 863.583 190.201 864.332 187.951C864.332 187.951 853.84 207.452 834.354 210.896L842.95 204.125Z" fill="#536DFE"/>
<path d="M844.186 197.859C844.186 197.859 867.877 175.588 873.925 175.61C873.925 175.61 854.387 176.482 843.617 196.672L844.186 197.859Z" fill="#536DFE"/>
<path d="M825.929 253.422L826.791 253.532C831.243 219.463 837.733 199.302 845.063 196.833L844.778 196.027C837.006 198.665 830.471 218.517 825.929 253.422Z" fill="#444053"/>
<path d="M819.379 334.899L820.683 335.002C820.96 331.821 821.17 328.568 821.313 325.321C822.557 297.122 824.483 271.223 827.016 251.81L826.267 250.894C823.726 270.351 821.253 297.026 820.009 325.27C819.866 328.494 819.656 331.733 819.379 334.899Z" fill="#444053"/>
<path d="M719.551 489.198C719.776 489.103 742.732 479.078 766.557 455.173C780.516 441.172 792.115 425.094 800.92 407.538C811.937 385.604 818.652 358.651 820.901 332.466L819.544 333.089C814.485 391.863 787.122 432.022 765.366 453.897C741.773 477.59 719.071 487.513 718.846 487.608L719.551 489.198Z" fill="#444053"/>
<path d="M778.991 62.4597H58.8478C57.1463 62.4597 55.5145 63.1206 54.3114 64.2971C53.1083 65.4735 52.4324 67.0691 52.4324 68.7328V87.0098H785.406V68.7328C785.406 67.0691 784.73 65.4735 783.527 64.2971C782.324 63.1206 780.692 62.4597 778.991 62.4597Z" fill="#3F3D56"/>
<path d="M52.4324 87.0098V498.307C52.4324 501.662 53.7952 504.879 56.2212 507.251C58.6471 509.623 61.9373 510.956 65.3681 510.956H772.47C775.901 510.956 779.191 509.623 781.617 507.251C784.043 504.879 785.406 501.662 785.406 498.307V87.0098H52.4324Z" fill="white"/>
<path opacity="0.8" d="M64.0415 77.4829C65.6972 77.4829 67.0393 76.1705 67.0393 74.5515C67.0393 72.9326 65.6972 71.6202 64.0415 71.6202C62.3858 71.6202 61.0436 72.9326 61.0436 74.5515C61.0436 76.1705 62.3858 77.4829 64.0415 77.4829Z" fill="#FA5959"/>
<path opacity="0.8" d="M72.2856 77.4829C73.9412 77.4829 75.2834 76.1705 75.2834 74.5515C75.2834 72.9326 73.9412 71.6202 72.2856 71.6202C70.6299 71.6202 69.2877 72.9326 69.2877 74.5515C69.2877 76.1705 70.6299 77.4829 72.2856 77.4829Z" fill="#FED253"/>
<path opacity="0.8" d="M80.5296 77.4829C82.1853 77.4829 83.5275 76.1705 83.5275 74.5515C83.5275 72.9326 82.1853 71.6202 80.5296 71.6202C78.874 71.6202 77.5318 72.9326 77.5318 74.5515C77.5318 76.1705 78.874 77.4829 80.5296 77.4829Z" fill="#8CCF4D"/>
<path opacity="0.05" d="M709.643 155.589H120.566V408.872H709.643V155.589Z" fill="black"/>
<path d="M705.146 157.509H125.063V405.208H705.146V157.509Z" fill="#3F3D56"/>
<path d="M283.199 221.258C271.786 221.258 260.628 224.568 251.138 230.768C241.648 236.969 234.251 245.782 229.883 256.092C225.516 266.403 224.373 277.749 226.599 288.695C228.826 299.641 234.322 309.696 242.393 317.588C250.464 325.479 260.746 330.854 271.941 333.031C283.135 335.208 294.738 334.091 305.283 329.82C315.828 325.549 324.841 318.316 331.182 309.037C337.523 299.757 340.908 288.847 340.908 277.687C340.908 270.276 339.415 262.939 336.515 256.092C333.615 249.246 329.364 243.026 324.005 237.786C318.647 232.546 312.285 228.389 305.283 225.554C298.282 222.718 290.778 221.258 283.199 221.258ZM293.549 279.042V305.762H273.149V279.042C270.326 276.953 268.245 274.049 267.201 270.741C266.156 267.433 266.201 263.888 267.328 260.606C268.455 257.324 270.608 254.471 273.483 252.449C276.357 250.428 279.808 249.341 283.349 249.341C286.89 249.341 290.341 250.428 293.216 252.449C296.09 254.471 298.243 257.324 299.37 260.606C300.497 263.888 300.542 267.433 299.497 270.741C298.453 274.049 296.372 276.953 293.549 279.042Z" fill="#536DFE"/>
<path opacity="0.05" d="M283.199 221.258C271.786 221.258 260.628 224.568 251.138 230.768C241.648 236.969 234.251 245.782 229.883 256.092C225.516 266.403 224.373 277.749 226.599 288.695C228.826 299.641 234.322 309.696 242.393 317.588C250.464 325.479 260.746 330.854 271.941 333.031C283.135 335.208 294.738 334.091 305.283 329.82C315.828 325.549 324.841 318.316 331.182 309.037C337.523 299.757 340.908 288.847 340.908 277.687C340.908 270.276 339.415 262.939 336.515 256.092C333.615 249.246 329.364 243.026 324.005 237.786C318.647 232.546 312.285 228.389 305.283 225.554C298.282 222.718 290.778 221.258 283.199 221.258ZM293.549 279.042V305.762H273.149V279.042C270.326 276.953 268.245 274.049 267.201 270.741C266.156 267.433 266.201 263.888 267.328 260.606C268.455 257.324 270.608 254.471 273.483 252.449C276.357 250.428 279.808 249.341 283.349 249.341C286.89 249.341 290.341 250.428 293.216 252.449C296.09 254.471 298.243 257.324 299.37 260.606C300.497 263.888 300.542 267.433 299.497 270.741C298.453 274.049 296.372 276.953 293.549 279.042Z" fill="black"/>
<path d="M283.199 205.136C268.524 205.136 254.179 209.391 241.978 217.363C229.776 225.335 220.266 236.666 214.65 249.923C209.035 263.18 207.565 277.767 210.428 291.841C213.291 305.914 220.358 318.841 230.734 328.988C241.111 339.134 254.331 346.044 268.724 348.844C283.117 351.643 298.035 350.206 311.593 344.715C325.151 339.224 336.739 329.925 344.891 317.994C353.044 306.063 357.396 292.036 357.396 277.687C357.396 258.445 349.579 239.991 335.664 226.385C321.75 212.78 302.877 205.136 283.199 205.136ZM296.502 279.431V313.779H270.271V279.431C266.64 276.744 263.964 273.01 262.62 268.755C261.276 264.501 261.333 259.941 262.782 255.72C264.232 251.499 267 247.83 270.697 245.23C274.394 242.63 278.833 241.232 283.387 241.232C287.94 241.232 292.379 242.63 296.076 245.23C299.773 247.83 302.541 251.499 303.991 255.72C305.44 259.941 305.497 264.501 304.153 268.755C302.809 273.01 300.133 276.744 296.502 279.431Z" fill="#536DFE"/>
<path d="M627.952 268.167H388.124V293.084H627.952V268.167Z" fill="white"/>
<path d="M627.952 313.603H576.239V338.52H627.952V313.603Z" fill="#536DFE"/>
<path d="M411.732 280.252H407.393L411.252 276.485C411.321 276.415 411.36 276.322 411.36 276.225C411.36 276.128 411.321 276.034 411.252 275.965C411.217 275.93 411.176 275.903 411.13 275.884C411.085 275.866 411.036 275.856 410.986 275.856C410.937 275.856 410.888 275.866 410.842 275.884C410.796 275.903 410.755 275.93 410.72 275.965L406.86 279.739V275.488C406.86 275.391 406.821 275.298 406.751 275.229C406.68 275.16 406.585 275.122 406.486 275.122C406.387 275.124 406.293 275.163 406.223 275.231C406.153 275.299 406.113 275.392 406.111 275.488V279.739L402.259 275.943C402.224 275.908 402.182 275.881 402.137 275.862C402.091 275.844 402.042 275.834 401.993 275.834C401.943 275.834 401.894 275.844 401.849 275.862C401.803 275.881 401.761 275.908 401.727 275.943C401.657 276.012 401.619 276.106 401.619 276.203C401.619 276.3 401.657 276.393 401.727 276.463L405.586 280.23H401.239C401.141 280.232 401.046 280.271 400.977 280.339C400.907 280.407 400.867 280.499 400.865 280.596C400.865 280.693 400.904 280.786 400.974 280.855C401.045 280.924 401.14 280.962 401.239 280.962H405.586L401.727 284.737C401.657 284.806 401.619 284.9 401.619 284.997C401.619 285.094 401.657 285.187 401.727 285.257C401.799 285.323 401.894 285.36 401.993 285.36C402.091 285.36 402.187 285.323 402.259 285.257L406.111 281.483V285.726C406.111 285.823 406.15 285.916 406.221 285.985C406.291 286.054 406.386 286.092 406.486 286.092C406.585 286.092 406.68 286.054 406.751 285.985C406.821 285.916 406.86 285.823 406.86 285.726V281.483L410.72 285.257C410.792 285.323 410.887 285.36 410.986 285.36C411.085 285.36 411.18 285.323 411.252 285.257C411.321 285.187 411.36 285.094 411.36 284.997C411.36 284.9 411.321 284.806 411.252 284.737L407.393 280.962H411.732C411.831 280.962 411.927 280.924 411.997 280.855C412.067 280.786 412.107 280.693 412.107 280.596C412.101 280.503 412.059 280.415 411.989 280.351C411.92 280.287 411.828 280.251 411.732 280.252Z" fill="#536DFE"/>
<path d="M427.471 280.252H423.131L426.991 276.485C427.06 276.415 427.099 276.322 427.099 276.225C427.099 276.128 427.06 276.034 426.991 275.965C426.956 275.93 426.915 275.903 426.869 275.884C426.823 275.866 426.774 275.856 426.725 275.856C426.675 275.856 426.626 275.866 426.581 275.884C426.535 275.903 426.494 275.93 426.459 275.965L422.599 279.739V275.488C422.599 275.391 422.56 275.298 422.489 275.229C422.419 275.16 422.324 275.122 422.224 275.122C422.126 275.124 422.031 275.163 421.961 275.231C421.892 275.299 421.852 275.392 421.85 275.488V279.739L417.997 275.943C417.963 275.908 417.921 275.881 417.875 275.862C417.83 275.844 417.781 275.834 417.731 275.834C417.682 275.834 417.633 275.844 417.587 275.862C417.542 275.881 417.5 275.908 417.465 275.943C417.396 276.012 417.357 276.106 417.357 276.203C417.357 276.3 417.396 276.393 417.465 276.463L421.325 280.23H416.978C416.879 280.232 416.785 280.271 416.715 280.339C416.645 280.407 416.605 280.499 416.603 280.596C416.603 280.693 416.643 280.786 416.713 280.855C416.783 280.924 416.879 280.962 416.978 280.962H421.325L417.465 284.737C417.396 284.806 417.357 284.9 417.357 284.997C417.357 285.094 417.396 285.187 417.465 285.257C417.537 285.323 417.633 285.36 417.731 285.36C417.83 285.36 417.925 285.323 417.997 285.257L421.85 281.483V285.726C421.85 285.823 421.889 285.916 421.959 285.985C422.03 286.054 422.125 286.092 422.224 286.092C422.324 286.092 422.419 286.054 422.489 285.985C422.56 285.916 422.599 285.823 422.599 285.726V281.483L426.459 285.257C426.531 285.323 426.626 285.36 426.725 285.36C426.824 285.36 426.919 285.323 426.991 285.257C427.06 285.187 427.099 285.094 427.099 284.997C427.099 284.9 427.06 284.806 426.991 284.737L423.131 280.962H427.471C427.57 280.962 427.665 280.924 427.736 280.855C427.806 280.786 427.845 280.693 427.845 280.596C427.84 280.503 427.798 280.415 427.728 280.351C427.658 280.287 427.566 280.251 427.471 280.252Z" fill="#536DFE"/>
<path d="M443.209 280.252H438.87L442.73 276.485C442.799 276.415 442.837 276.322 442.837 276.225C442.837 276.128 442.799 276.034 442.73 275.965C442.695 275.93 442.653 275.903 442.608 275.884C442.562 275.866 442.513 275.856 442.464 275.856C442.414 275.856 442.365 275.866 442.319 275.884C442.274 275.903 442.232 275.93 442.198 275.965L438.338 279.739V275.488C438.338 275.391 438.298 275.298 438.228 275.229C438.158 275.16 438.063 275.122 437.963 275.122C437.864 275.124 437.77 275.163 437.7 275.231C437.63 275.299 437.59 275.392 437.588 275.488V279.739L433.736 275.943C433.701 275.908 433.66 275.881 433.614 275.862C433.569 275.844 433.52 275.834 433.47 275.834C433.421 275.834 433.372 275.844 433.326 275.862C433.28 275.881 433.239 275.908 433.204 275.943C433.135 276.012 433.096 276.106 433.096 276.203C433.096 276.3 433.135 276.393 433.204 276.463L437.064 280.23H432.717C432.618 280.232 432.524 280.271 432.454 280.339C432.384 280.407 432.344 280.499 432.342 280.596C432.342 280.693 432.382 280.786 432.452 280.855C432.522 280.924 432.618 280.962 432.717 280.962H437.064L433.204 284.737C433.135 284.806 433.096 284.9 433.096 284.997C433.096 285.094 433.135 285.187 433.204 285.257C433.276 285.323 433.371 285.36 433.47 285.36C433.569 285.36 433.664 285.323 433.736 285.257L437.588 281.483V285.726C437.588 285.823 437.628 285.916 437.698 285.985C437.768 286.054 437.864 286.092 437.963 286.092C438.063 286.092 438.158 286.054 438.228 285.985C438.298 285.916 438.338 285.823 438.338 285.726V281.483L442.198 285.257C442.27 285.323 442.365 285.36 442.464 285.36C442.562 285.36 442.657 285.323 442.73 285.257C442.799 285.187 442.837 285.094 442.837 284.997C442.837 284.9 442.799 284.806 442.73 284.737L438.87 280.962H443.209C443.309 280.962 443.404 280.924 443.474 280.855C443.545 280.786 443.584 280.693 443.584 280.596C443.578 280.503 443.536 280.415 443.467 280.351C443.397 280.287 443.305 280.251 443.209 280.252Z" fill="#536DFE"/>
<path d="M458.948 280.252H454.609L458.468 276.485C458.537 276.415 458.576 276.322 458.576 276.225C458.576 276.128 458.537 276.034 458.468 275.965C458.433 275.93 458.392 275.903 458.346 275.884C458.301 275.866 458.252 275.856 458.202 275.856C458.153 275.856 458.104 275.866 458.058 275.884C458.012 275.903 457.971 275.93 457.936 275.965L454.076 279.739V275.488C454.076 275.391 454.037 275.298 453.967 275.229C453.896 275.16 453.801 275.122 453.702 275.122C453.603 275.124 453.509 275.163 453.439 275.231C453.369 275.299 453.329 275.392 453.327 275.488V279.739L449.475 275.943C449.44 275.908 449.398 275.881 449.353 275.862C449.307 275.844 449.258 275.834 449.209 275.834C449.159 275.834 449.11 275.844 449.065 275.862C449.019 275.881 448.977 275.908 448.943 275.943C448.873 276.012 448.835 276.106 448.835 276.203C448.835 276.3 448.873 276.393 448.943 276.463L452.802 280.23H448.455C448.357 280.232 448.262 280.271 448.193 280.339C448.123 280.407 448.083 280.499 448.081 280.596C448.081 280.693 448.12 280.786 448.19 280.855C448.261 280.924 448.356 280.962 448.455 280.962H452.802L448.943 284.737C448.873 284.806 448.835 284.9 448.835 284.997C448.835 285.094 448.873 285.187 448.943 285.257C449.015 285.323 449.11 285.36 449.209 285.36C449.307 285.36 449.403 285.323 449.475 285.257L453.327 281.483V285.726C453.327 285.823 453.366 285.916 453.437 285.985C453.507 286.054 453.602 286.092 453.702 286.092C453.801 286.092 453.896 286.054 453.967 285.985C454.037 285.916 454.076 285.823 454.076 285.726V281.483L457.936 285.257C458.008 285.323 458.103 285.36 458.202 285.36C458.301 285.36 458.396 285.323 458.468 285.257C458.537 285.187 458.576 285.094 458.576 284.997C458.576 284.9 458.537 284.806 458.468 284.737L454.609 280.962H458.948C459.047 280.962 459.143 280.924 459.213 280.855C459.283 280.786 459.323 280.693 459.323 280.596C459.317 280.503 459.275 280.415 459.205 280.351C459.136 280.287 459.044 280.251 458.948 280.252Z" fill="#536DFE"/>
<path d="M474.687 280.252H470.347L474.207 276.485C474.276 276.415 474.315 276.322 474.315 276.225C474.315 276.128 474.276 276.034 474.207 275.965C474.172 275.93 474.131 275.903 474.085 275.884C474.039 275.866 473.99 275.856 473.941 275.856C473.891 275.856 473.842 275.866 473.797 275.884C473.751 275.903 473.71 275.93 473.675 275.965L469.815 279.739V275.488C469.815 275.391 469.776 275.298 469.705 275.229C469.635 275.16 469.54 275.122 469.44 275.122C469.342 275.124 469.247 275.163 469.178 275.231C469.108 275.299 469.068 275.392 469.066 275.488V279.739L465.213 275.943C465.179 275.908 465.137 275.881 465.091 275.862C465.046 275.844 464.997 275.834 464.947 275.834C464.898 275.834 464.849 275.844 464.803 275.862C464.758 275.881 464.716 275.908 464.681 275.943C464.612 276.012 464.573 276.106 464.573 276.203C464.573 276.3 464.612 276.393 464.681 276.463L468.541 280.23H464.194C464.095 280.232 464.001 280.271 463.931 280.339C463.861 280.407 463.821 280.499 463.819 280.596C463.819 280.693 463.859 280.786 463.929 280.855C463.999 280.924 464.095 280.962 464.194 280.962H468.541L464.681 284.737C464.612 284.806 464.573 284.9 464.573 284.997C464.573 285.094 464.612 285.187 464.681 285.257C464.753 285.323 464.849 285.36 464.947 285.36C465.046 285.36 465.141 285.323 465.213 285.257L469.066 281.483V285.726C469.066 285.823 469.105 285.916 469.175 285.985C469.246 286.054 469.341 286.092 469.44 286.092C469.54 286.092 469.635 286.054 469.705 285.985C469.776 285.916 469.815 285.823 469.815 285.726V281.483L473.675 285.257C473.747 285.323 473.842 285.36 473.941 285.36C474.04 285.36 474.135 285.323 474.207 285.257C474.276 285.187 474.315 285.094 474.315 284.997C474.315 284.9 474.276 284.806 474.207 284.737L470.347 280.962H474.687C474.786 280.962 474.881 280.924 474.952 280.855C475.022 280.786 475.061 280.693 475.061 280.596C475.056 280.503 475.014 280.415 474.944 280.351C474.874 280.287 474.782 280.251 474.687 280.252Z" fill="#536DFE"/>
<path d="M490.425 280.252H486.086L489.946 276.485C490.015 276.415 490.053 276.322 490.053 276.225C490.053 276.128 490.015 276.034 489.946 275.965C489.911 275.93 489.869 275.903 489.824 275.884C489.778 275.866 489.729 275.856 489.68 275.856C489.63 275.856 489.581 275.866 489.535 275.884C489.49 275.903 489.448 275.93 489.414 275.965L485.554 279.739V275.488C485.554 275.391 485.514 275.298 485.444 275.229C485.374 275.16 485.278 275.122 485.179 275.122C485.08 275.124 484.986 275.163 484.916 275.231C484.846 275.299 484.806 275.392 484.804 275.488V279.739L480.952 275.943C480.917 275.908 480.876 275.881 480.83 275.862C480.784 275.844 480.735 275.834 480.686 275.834C480.637 275.834 480.588 275.844 480.542 275.862C480.496 275.881 480.455 275.908 480.42 275.943C480.351 276.012 480.312 276.106 480.312 276.203C480.312 276.3 480.351 276.393 480.42 276.463L484.28 280.23H479.933C479.834 280.232 479.74 280.271 479.67 280.339C479.6 280.407 479.56 280.499 479.558 280.596C479.558 280.693 479.598 280.786 479.668 280.855C479.738 280.924 479.833 280.962 479.933 280.962H484.28L480.42 284.737C480.351 284.806 480.312 284.9 480.312 284.997C480.312 285.094 480.351 285.187 480.42 285.257C480.492 285.323 480.587 285.36 480.686 285.36C480.785 285.36 480.88 285.323 480.952 285.257L484.804 281.483V285.726C484.804 285.823 484.844 285.916 484.914 285.985C484.984 286.054 485.08 286.092 485.179 286.092C485.278 286.092 485.374 286.054 485.444 285.985C485.514 285.916 485.554 285.823 485.554 285.726V281.483L489.414 285.257C489.486 285.323 489.581 285.36 489.68 285.36C489.778 285.36 489.873 285.323 489.946 285.257C490.015 285.187 490.053 285.094 490.053 284.997C490.053 284.9 490.015 284.806 489.946 284.737L486.086 280.962H490.425C490.525 280.962 490.62 280.924 490.69 280.855C490.761 280.786 490.8 280.693 490.8 280.596C490.794 280.503 490.752 280.415 490.683 280.351C490.613 280.287 490.521 280.251 490.425 280.252Z" fill="#536DFE"/>
<path d="M506.164 280.252H501.825L505.684 276.485C505.754 276.415 505.792 276.322 505.792 276.225C505.792 276.128 505.754 276.034 505.684 275.965C505.65 275.93 505.608 275.903 505.562 275.884C505.517 275.866 505.468 275.856 505.418 275.856C505.369 275.856 505.32 275.866 505.274 275.884C505.229 275.903 505.187 275.93 505.152 275.965L501.293 279.739V275.488C501.293 275.391 501.253 275.298 501.183 275.229C501.113 275.16 501.017 275.122 500.918 275.122C500.819 275.124 500.725 275.163 500.655 275.231C500.585 275.299 500.545 275.392 500.543 275.488V279.739L496.691 275.943C496.656 275.908 496.615 275.881 496.569 275.862C496.523 275.844 496.474 275.834 496.425 275.834C496.375 275.834 496.326 275.844 496.281 275.862C496.235 275.881 496.194 275.908 496.159 275.943C496.09 276.012 496.051 276.106 496.051 276.203C496.051 276.3 496.09 276.393 496.159 276.463L500.018 280.23H495.672C495.573 280.232 495.479 280.271 495.409 280.339C495.339 280.407 495.299 280.499 495.297 280.596C495.297 280.693 495.336 280.786 495.407 280.855C495.477 280.924 495.572 280.962 495.672 280.962H500.018L496.159 284.737C496.09 284.806 496.051 284.9 496.051 284.997C496.051 285.094 496.09 285.187 496.159 285.257C496.231 285.323 496.326 285.36 496.425 285.36C496.524 285.36 496.619 285.323 496.691 285.257L500.543 281.483V285.726C500.543 285.823 500.583 285.916 500.653 285.985C500.723 286.054 500.818 286.092 500.918 286.092C501.017 286.092 501.113 286.054 501.183 285.985C501.253 285.916 501.293 285.823 501.293 285.726V281.483L505.152 285.257C505.224 285.323 505.32 285.36 505.418 285.36C505.517 285.36 505.612 285.323 505.684 285.257C505.754 285.187 505.792 285.094 505.792 284.997C505.792 284.9 505.754 284.806 505.684 284.737L501.825 280.962H506.164C506.264 280.962 506.359 280.924 506.429 280.855C506.499 280.786 506.539 280.693 506.539 280.596C506.533 280.503 506.491 280.415 506.421 280.351C506.352 280.287 506.26 280.251 506.164 280.252Z" fill="#536DFE"/>
<path d="M521.903 280.252H517.563L521.423 276.485C521.492 276.415 521.531 276.322 521.531 276.225C521.531 276.128 521.492 276.034 521.423 275.965C521.388 275.93 521.347 275.903 521.301 275.884C521.256 275.866 521.207 275.856 521.157 275.856C521.108 275.856 521.059 275.866 521.013 275.884C520.967 275.903 520.926 275.93 520.891 275.965L517.031 279.739V275.488C517.031 275.391 516.992 275.298 516.922 275.229C516.851 275.16 516.756 275.122 516.657 275.122C516.558 275.124 516.464 275.163 516.394 275.231C516.324 275.299 516.284 275.392 516.282 275.488V279.739L512.43 275.943C512.395 275.908 512.353 275.881 512.308 275.862C512.262 275.844 512.213 275.834 512.164 275.834C512.114 275.834 512.065 275.844 512.019 275.862C511.974 275.881 511.932 275.908 511.897 275.943C511.828 276.012 511.79 276.106 511.79 276.203C511.79 276.3 511.828 276.393 511.897 276.463L515.757 280.23H511.41C511.312 280.232 511.217 280.271 511.147 280.339C511.078 280.407 511.038 280.499 511.036 280.596C511.036 280.693 511.075 280.786 511.145 280.855C511.216 280.924 511.311 280.962 511.41 280.962H515.757L511.897 284.737C511.828 284.806 511.79 284.9 511.79 284.997C511.79 285.094 511.828 285.187 511.897 285.257C511.97 285.323 512.065 285.36 512.164 285.36C512.262 285.36 512.357 285.323 512.43 285.257L516.282 281.483V285.726C516.282 285.823 516.321 285.916 516.392 285.985C516.462 286.054 516.557 286.092 516.657 286.092C516.756 286.092 516.851 286.054 516.922 285.985C516.992 285.916 517.031 285.823 517.031 285.726V281.483L520.891 285.257C520.963 285.323 521.058 285.36 521.157 285.36C521.256 285.36 521.351 285.323 521.423 285.257C521.492 285.187 521.531 285.094 521.531 284.997C521.531 284.9 521.492 284.806 521.423 284.737L517.563 280.962H521.903C522.002 280.962 522.097 280.924 522.168 280.855C522.238 280.786 522.278 280.693 522.278 280.596C522.272 280.503 522.23 280.415 522.16 280.351C522.09 280.287 521.998 280.251 521.903 280.252Z" fill="#536DFE"/>
<path d="M537.642 280.252H533.302L537.162 276.485C537.231 276.415 537.27 276.322 537.27 276.225C537.27 276.128 537.231 276.034 537.162 275.965C537.127 275.93 537.086 275.903 537.04 275.884C536.994 275.866 536.945 275.856 536.896 275.856C536.846 275.856 536.797 275.866 536.752 275.884C536.706 275.903 536.665 275.93 536.63 275.965L532.77 279.739V275.488C532.77 275.391 532.731 275.298 532.66 275.229C532.59 275.16 532.495 275.122 532.395 275.122C532.297 275.124 532.202 275.163 532.132 275.231C532.063 275.299 532.023 275.392 532.021 275.488V279.739L528.168 275.943C528.134 275.908 528.092 275.881 528.046 275.862C528.001 275.844 527.952 275.834 527.902 275.834C527.853 275.834 527.804 275.844 527.758 275.862C527.713 275.881 527.671 275.908 527.636 275.943C527.567 276.012 527.528 276.106 527.528 276.203C527.528 276.3 527.567 276.393 527.636 276.463L531.496 280.23H527.149C527.05 280.232 526.956 280.271 526.886 280.339C526.816 280.407 526.776 280.499 526.774 280.596C526.774 280.693 526.814 280.786 526.884 280.855C526.954 280.924 527.05 280.962 527.149 280.962H531.496L527.636 284.737C527.567 284.806 527.528 284.9 527.528 284.997C527.528 285.094 527.567 285.187 527.636 285.257C527.708 285.323 527.804 285.36 527.902 285.36C528.001 285.36 528.096 285.323 528.168 285.257L532.021 281.483V285.726C532.021 285.823 532.06 285.916 532.13 285.985C532.201 286.054 532.296 286.092 532.395 286.092C532.495 286.092 532.59 286.054 532.66 285.985C532.731 285.916 532.77 285.823 532.77 285.726V281.483L536.63 285.257C536.702 285.323 536.797 285.36 536.896 285.36C536.995 285.36 537.09 285.323 537.162 285.257C537.231 285.187 537.27 285.094 537.27 284.997C537.27 284.9 537.231 284.806 537.162 284.737L533.302 280.962H537.642C537.741 280.962 537.836 280.924 537.907 280.855C537.977 280.786 538.016 280.693 538.016 280.596C538.011 280.503 537.969 280.415 537.899 280.351C537.829 280.287 537.737 280.251 537.642 280.252Z" fill="#536DFE"/>
<path d="M553.38 280.252H549.041L552.901 276.485C552.97 276.415 553.008 276.322 553.008 276.225C553.008 276.128 552.97 276.034 552.901 275.965C552.866 275.93 552.824 275.903 552.779 275.884C552.733 275.866 552.684 275.856 552.634 275.856C552.585 275.856 552.536 275.866 552.49 275.884C552.445 275.903 552.403 275.93 552.368 275.965L548.509 279.739V275.488C548.509 275.391 548.469 275.298 548.399 275.229C548.329 275.16 548.233 275.122 548.134 275.122C548.035 275.124 547.941 275.163 547.871 275.231C547.801 275.299 547.761 275.392 547.759 275.488V279.739L543.907 275.943C543.872 275.908 543.831 275.881 543.785 275.862C543.739 275.844 543.69 275.834 543.641 275.834C543.591 275.834 543.542 275.844 543.497 275.862C543.451 275.881 543.41 275.908 543.375 275.943C543.306 276.012 543.267 276.106 543.267 276.203C543.267 276.3 543.306 276.393 543.375 276.463L547.235 280.23H542.888C542.789 280.232 542.695 280.271 542.625 280.339C542.555 280.407 542.515 280.499 542.513 280.596C542.513 280.693 542.552 280.786 542.623 280.855C542.693 280.924 542.788 280.962 542.888 280.962H547.235L543.375 284.737C543.306 284.806 543.267 284.9 543.267 284.997C543.267 285.094 543.306 285.187 543.375 285.257C543.447 285.323 543.542 285.36 543.641 285.36C543.74 285.36 543.835 285.323 543.907 285.257L547.759 281.483V285.726C547.759 285.823 547.799 285.916 547.869 285.985C547.939 286.054 548.035 286.092 548.134 286.092C548.233 286.092 548.329 286.054 548.399 285.985C548.469 285.916 548.509 285.823 548.509 285.726V281.483L552.368 285.257C552.441 285.323 552.536 285.36 552.634 285.36C552.733 285.36 552.828 285.323 552.901 285.257C552.97 285.187 553.008 285.094 553.008 284.997C553.008 284.9 552.97 284.806 552.901 284.737L549.041 280.962H553.38C553.48 280.962 553.575 280.924 553.645 280.855C553.715 280.786 553.755 280.693 553.755 280.596C553.749 280.503 553.707 280.415 553.638 280.351C553.568 280.287 553.476 280.251 553.38 280.252Z" fill="#536DFE"/>
<path d="M569.119 280.252H564.779L568.639 276.485C568.708 276.415 568.747 276.322 568.747 276.225C568.747 276.128 568.708 276.034 568.639 275.965C568.604 275.93 568.563 275.903 568.517 275.884C568.472 275.866 568.423 275.856 568.373 275.856C568.324 275.856 568.275 275.866 568.229 275.884C568.183 275.903 568.142 275.93 568.107 275.965L564.247 279.739V275.488C564.247 275.391 564.208 275.298 564.138 275.229C564.067 275.16 563.972 275.122 563.873 275.122C563.774 275.124 563.68 275.163 563.61 275.231C563.54 275.299 563.5 275.392 563.498 275.488V279.739L559.646 275.943C559.611 275.908 559.569 275.881 559.524 275.862C559.478 275.844 559.429 275.834 559.38 275.834C559.33 275.834 559.281 275.844 559.236 275.862C559.19 275.881 559.148 275.908 559.114 275.943C559.044 276.012 559.006 276.106 559.006 276.203C559.006 276.3 559.044 276.393 559.114 276.463L562.973 280.23H558.626C558.528 280.232 558.433 280.271 558.364 280.339C558.294 280.407 558.254 280.499 558.252 280.596C558.252 280.693 558.291 280.786 558.361 280.855C558.432 280.924 558.527 280.962 558.626 280.962H562.973L559.114 284.737C559.044 284.806 559.006 284.9 559.006 284.997C559.006 285.094 559.044 285.187 559.114 285.257C559.186 285.323 559.281 285.36 559.38 285.36C559.478 285.36 559.574 285.323 559.646 285.257L563.498 281.483V285.726C563.498 285.823 563.537 285.916 563.608 285.985C563.678 286.054 563.773 286.092 563.873 286.092C563.972 286.092 564.067 286.054 564.138 285.985C564.208 285.916 564.247 285.823 564.247 285.726V281.483L568.107 285.257C568.179 285.323 568.274 285.36 568.373 285.36C568.472 285.36 568.567 285.323 568.639 285.257C568.708 285.187 568.747 285.094 568.747 284.997C568.747 284.9 568.708 284.806 568.639 284.737L564.779 280.962H569.119C569.218 280.962 569.314 280.924 569.384 280.855C569.454 280.786 569.494 280.693 569.494 280.596C569.488 280.503 569.446 280.415 569.376 280.351C569.307 280.287 569.214 280.251 569.119 280.252Z" fill="#536DFE"/>
<path d="M689.775 369.401C689.754 368.515 689.641 367.634 689.438 366.77C688.763 364.293 687.242 361.296 684.738 360.549C682.154 359.775 679.658 358.743 677.289 357.471C676.839 349.615 678.683 341.575 676.674 333.961C675.925 331.176 674.688 328.509 674.358 325.658C673.946 322.111 674.935 318.33 673.489 315.061C672.35 312.482 669.847 310.664 667.156 309.712C664.465 308.759 661.565 308.502 658.71 308.246C655.112 307.96 643.465 306.612 639.403 309.756C639.123 309.968 638.871 310.215 638.654 310.488C638.564 310.609 638.484 310.737 638.414 310.87L638.377 310.928C638.295 311.081 638.227 311.24 638.174 311.405C638.118 311.584 638.075 311.768 638.047 311.954C638.047 312.013 638.047 312.071 638.047 312.13C638.047 312.189 638.047 312.387 638.047 312.518V312.716C638.047 312.848 638.047 312.98 638.047 313.119C638.047 313.259 638.047 313.222 638.047 313.273C638.099 313.933 638.197 314.592 638.197 315.245C638.205 315.569 638.175 315.894 638.107 316.212C637.857 317.076 637.434 317.883 636.863 318.586L636.728 318.777C636.645 318.894 636.563 319.004 636.488 319.121C636.413 319.239 636.353 319.326 636.293 319.429C636.233 319.532 636.173 319.598 636.121 319.693C636.048 319.814 635.983 319.938 635.926 320.067C635.926 320.14 635.843 320.206 635.813 320.279C635.72 320.477 635.644 320.683 635.589 320.895C635.413 321.531 635.398 322.2 635.544 322.844C635.746 323.666 636.093 324.447 636.57 325.153C636.758 325.453 636.96 325.746 637.17 326.039L637.695 326.735C637.597 327.415 637.544 328.101 637.537 328.787C637.538 331.082 638.071 333.347 639.096 335.411C640.122 337.475 641.613 339.285 643.458 340.703C643.755 343.798 643.722 346.915 643.361 350.003C643.293 350.648 643.211 351.3 643.121 351.945C643.031 352.59 642.963 353.015 642.873 353.55C641.777 353.704 640.659 353.621 639.598 353.308C639.109 353.095 638.609 352.906 638.099 352.744C635.918 352.209 633.692 354.334 631.534 353.689C631.534 353.792 631.474 353.887 631.437 353.982C630.986 353.709 630.468 353.559 629.938 353.55C628.656 353.491 627.614 352.583 626.685 351.725L623.83 349.094C623.643 348.933 623.477 348.751 623.335 348.552C623.181 348.267 623.066 347.964 622.99 347.651C622.51 346.134 621.349 344.924 620.225 343.774C620.012 343.512 619.729 343.311 619.408 343.195C619.284 343.177 619.157 343.177 619.033 343.195C618.957 343.093 618.874 342.995 618.786 342.902C618.592 342.684 618.384 342.479 618.164 342.286C616.8 341.055 616.665 340 615.481 338.622C614.448 337.308 613.511 335.925 612.678 334.482C612.58 333.712 612.445 332.921 612.28 332.122C611.903 330.293 611.353 328.502 610.639 326.772L609.14 323.526L608.968 323.694C607.881 322.111 606.719 321.247 605.678 321.452C603.931 321.803 603.069 325.116 603.347 329.447L603.946 333.844C603.946 333.954 603.999 334.064 604.029 334.174C603.921 334.695 603.866 335.225 603.864 335.757C603.864 336.372 604.448 336.827 604.756 337.376C605.248 338.121 605.508 338.989 605.505 339.875C605.468 340.19 605.37 340.491 605.355 340.799C605.396 341.487 605.641 342.149 606.06 342.704L609.807 348.86L610.557 350.15L610.602 350.208C610.838 350.658 611.183 351.046 611.606 351.337C611.753 352.878 612.171 354.383 612.842 355.785C612.97 356.064 613.112 356.327 613.262 356.591C614.27 358.211 615.456 359.717 616.8 361.084L618.583 363.04C620.345 364.96 622.106 366.888 624.017 368.661C624.701 369.373 625.528 369.939 626.445 370.325C626.895 370.5 627.384 370.557 627.863 370.489C628.342 370.421 628.794 370.23 629.173 369.936C629.173 370.845 629.173 371.754 629.173 372.662C629.451 372.679 629.72 372.768 629.951 372.92C630.183 373.073 630.368 373.282 630.489 373.528C630.61 373.774 630.661 374.047 630.638 374.318C630.615 374.59 630.518 374.851 630.357 375.073C628.784 379.023 627.195 383.01 624.811 386.55C626.494 387.523 628.053 388.687 629.458 390.016C630.37 391.004 631.18 392.076 631.879 393.219C631.946 393.761 631.999 394.296 632.029 394.831C632.583 403.566 629.128 412.236 626.033 420.561C625.141 422.92 624.167 425.39 624.242 427.845C623.654 428.199 623.093 428.593 622.563 429.025C623.178 430.593 622.938 431.993 622.87 433.671C622.848 434.677 622.637 435.671 622.248 436.602C621.922 437.248 621.562 437.877 621.169 438.486C619.228 441.835 618.801 445.814 618.411 449.64C618.179 451.948 619.093 454.77 618.021 456.836C616.17 460.383 614.529 464.164 614.274 468.107C614.265 468.994 614.149 469.877 613.929 470.738C613.697 471.471 613.285 472.094 613.075 472.812C612.859 473.774 612.808 474.765 612.925 475.743C613.068 479.256 612.534 482.764 611.351 486.084C610.414 488.7 609.38 491.499 610.114 494.189C608.306 496.046 607.19 498.444 606.944 500.997C606.925 501.65 606.845 502.3 606.704 502.939C606.475 503.592 606.174 504.219 605.805 504.808C604.296 507.494 603.59 510.541 603.766 513.602C601.518 516.584 600.394 520.263 599.727 523.92C599.06 527.577 598.768 531.3 597.913 534.913C596.774 539.691 594.713 544.52 594.308 549.415C591.88 550.932 590.831 553.871 590.366 556.649C589.901 559.426 589.826 562.343 588.635 564.908C588.02 566.241 587.136 567.436 586.551 568.799C586.141 569.884 585.84 571.006 585.652 572.148C585.292 573.936 584.977 575.93 585.42 577.644C584.784 578.303 584.042 578.855 583.224 579.279C583.344 578.824 583.441 578.37 583.523 577.908C581.59 579.623 578.082 579.022 576.538 581.081C576.075 581.745 575.894 582.559 576.034 583.351C576.174 584.143 576.624 584.851 577.288 585.324C577.771 585.612 578.293 585.832 578.839 585.977C582.587 587.149 586.439 588.329 590.291 587.706C590.747 587.658 591.188 587.521 591.588 587.303C592.089 586.942 592.501 586.477 592.794 585.94C593.371 585.046 593.948 584.152 594.518 583.258C595.898 583.661 597.303 583.981 598.723 584.218C598.865 585.39 598.97 586.563 599.022 587.736C599.772 587.882 600.776 587.926 601.128 587.245C601.235 586.987 601.279 586.708 601.256 586.431C601.256 585.911 601.331 585.222 601.376 584.518H601.526C603.812 584.609 606.087 584.159 608.158 583.207C607.356 576.714 610.002 570.367 612.295 564.226C614.716 557.762 616.792 551.182 618.883 544.601C620.382 539.969 622.038 535.484 623.507 530.845C625.356 524.983 627.212 519.12 629.076 513.257C629.885 510.678 630.702 508.127 631.631 505.562C633.588 500.372 635.909 495.321 638.579 490.444C639.328 489.059 640.078 487.689 640.692 486.252C641.442 484.501 641.974 482.669 642.574 480.859C643.88 477.144 645.453 473.525 647.28 470.027C647.333 469.932 647.37 469.844 647.423 469.756C648.03 472.182 648.637 474.644 649.041 477.084C649.589 480.077 649.632 483.136 649.169 486.142C648.809 488.187 648.127 490.21 648.21 492.283C648.322 495.149 649.888 497.75 650.66 500.513C651.158 502.581 651.439 504.692 651.5 506.816C651.71 510.113 653.538 513.814 652.249 516.87C648.24 526.551 650.181 537.485 647.895 547.649C646.718 552.867 643.113 557.77 643.398 563.105C643.598 566.891 643.938 570.668 644.417 574.435C644.533 575.623 644.849 576.785 645.354 577.872C645.653 578.443 645.996 578.992 646.381 579.513C646.051 579.638 645.774 579.967 645.534 580.664C644.919 582.496 645.534 584.768 647.198 585.794C647.876 586.148 648.607 586.395 649.364 586.526C650.383 586.81 651.437 586.953 652.497 586.951C652.826 586.934 653.154 586.895 653.478 586.834C654.637 587.31 655.82 587.726 657.023 588.08C657.023 588.38 657.083 588.681 657.121 588.981C657.123 589.138 657.158 589.293 657.226 589.436C657.293 589.579 657.39 589.706 657.51 589.809C657.697 589.895 657.904 589.93 658.11 589.912H662.18C662.18 589.582 662.18 589.245 662.18 588.915C662.645 588.963 663.116 588.914 663.561 588.773C664.007 588.632 664.417 588.401 664.765 588.095C665.126 587.646 665.381 587.126 665.515 586.57C666.624 582.891 667.726 579.21 668.82 575.526C670.132 571.455 670.678 567.184 670.431 562.922C668.985 549.415 672.162 535.865 671.128 522.322C670.506 514.183 670.934 505.998 672.402 497.963C672.74 496.146 673.152 494.299 673.302 492.489C673.631 489.074 673.227 485.622 673.474 482.229C673.556 481.042 673.721 479.862 673.871 478.682C674.898 471.359 675.436 463.978 675.483 456.587C675.46 454.138 675.304 451.692 675.018 449.259C675.799 449.064 676.508 448.658 677.064 448.086C677.731 447.236 677.559 446.041 677.551 444.957C677.551 442.363 678.668 439.915 679.567 437.467C680.721 434.091 681.667 430.65 682.4 427.163C683.174 424.354 683.597 421.462 683.659 418.553C683.659 418.26 683.644 417.966 683.614 417.673C683.897 417.482 684.132 417.232 684.304 416.94C684.499 416.511 684.621 416.053 684.663 415.585C684.933 413.716 685.211 411.84 685.48 409.964C685.68 408.62 685.878 407.279 686.072 405.941L688.456 389.679C688.658 388.265 688.868 386.857 689.07 385.45L689.692 381.244C689.76 380.746 689.835 380.247 689.887 379.778C691.716 376.788 689.97 372.802 689.775 369.401ZM669.892 430.285C669.007 428.233 668.183 426.13 668.393 423.917H668.31C668.507 423.236 668.473 422.511 668.213 421.85C667.98 421.315 667.576 420.861 667.328 420.326C667.063 419.673 666.925 418.977 666.924 418.274C666.738 413.817 667.097 409.354 667.995 404.981C668.093 404.468 668.198 403.947 668.295 403.434C668.61 403.257 668.897 403.037 669.15 402.782C669.544 402.343 669.87 401.849 670.116 401.316C670.963 399.653 671.735 397.96 672.447 396.238C672.68 395.681 673.017 395.036 673.594 394.897C673.474 399.184 673.924 403.559 672.14 407.428C671.801 408.052 671.549 408.718 671.39 409.407C671.226 410.499 671.69 411.605 671.525 412.69C671.443 413.254 671.196 413.775 671.098 414.332C671.024 414.605 671.025 414.893 671.102 415.166C671.178 415.438 671.327 415.687 671.533 415.885C671.632 415.953 671.741 416.007 671.855 416.046C671.81 416.34 671.773 416.64 671.743 416.926C671.683 417.527 671.653 418.091 671.615 418.443C671.443 420.235 671.375 422.036 671.413 423.836C671.413 425.778 671.488 427.72 671.458 429.699C671.486 430.267 671.389 430.834 671.173 431.363C671.025 431.635 670.832 431.883 670.604 432.096C670.386 431.436 670.146 430.857 669.892 430.285Z" fill="url(#paint0_linear)"/>
<path d="M610.731 345.254C613.018 344.796 613.796 339.291 612.469 332.959C611.142 326.627 608.213 321.865 605.926 322.324C603.639 322.782 602.86 328.286 604.187 334.618C605.514 340.951 608.444 345.712 610.731 345.254Z" fill="#FBBEBE"/>
<path d="M645.654 580.803C645.039 582.62 645.654 584.892 647.318 585.881C647.992 586.233 648.717 586.48 649.469 586.614C650.486 586.895 651.537 587.036 652.594 587.032C653.891 586.973 655.135 586.475 656.431 586.299C656.581 586.262 656.739 586.283 656.873 586.358C656.938 586.426 656.987 586.507 657.015 586.596C657.044 586.685 657.052 586.779 657.038 586.871C657.052 587.591 657.107 588.311 657.203 589.025C657.204 589.182 657.24 589.338 657.307 589.48C657.374 589.623 657.472 589.75 657.593 589.853C657.78 589.939 657.987 589.974 658.192 589.956H662.255C662.347 586.467 661.956 582.981 661.093 579.594C661.037 579.334 660.935 579.087 660.793 578.861C660.448 578.492 659.996 578.236 659.497 578.128C658.503 577.724 657.431 577.541 656.356 577.593C655.045 577.762 653.951 578.59 652.834 579.279C651.717 579.967 650.196 580.576 648.839 580.224C647.483 579.872 646.351 578.766 645.654 580.803Z" fill="#3F3D56"/>
<path d="M586.012 577.586C584.87 578.781 583.469 579.713 581.912 580.312L581.223 580.634C581.127 580.67 581.046 580.734 580.99 580.818C580.977 580.874 580.977 580.934 580.99 580.991C581.003 581.048 581.029 581.101 581.065 581.147C581.639 582.015 582.487 582.676 583.48 583.029C584.473 583.382 585.557 583.408 586.566 583.104C587.013 582.995 587.426 582.784 587.773 582.488C588.344 581.826 588.671 580.995 588.702 580.129C588.929 579.235 588.89 578.297 588.59 577.424C587.548 575.131 587.166 576.171 586.012 577.586Z" fill="#FBBEBE"/>
<path d="M601.586 586.614C601.609 586.891 601.565 587.17 601.458 587.428C601.106 588.102 600.124 588.065 599.36 587.919C599.244 585.432 598.936 582.958 598.438 580.517C596.984 580.451 595.935 581.8 595.155 583.009L593.147 586.123C592.856 586.66 592.447 587.125 591.948 587.486C591.546 587.701 591.106 587.838 590.651 587.889C586.814 588.512 582.939 587.332 579.237 586.16C578.691 586.017 578.169 585.8 577.685 585.515C577.025 585.041 576.578 584.335 576.438 583.545C576.298 582.755 576.477 581.943 576.936 581.279C578.487 579.227 581.972 579.814 583.906 578.113C583.704 579.31 583.372 580.481 582.917 581.609C585.502 581.228 587.241 578.912 589.325 577.366C589.848 576.932 590.478 576.639 591.153 576.516C591.658 576.474 592.167 576.527 592.652 576.67C595.055 577.261 597.302 578.343 599.247 579.843C600.034 580.451 601.263 581.309 601.608 582.247C601.975 583.368 601.586 585.42 601.586 586.614Z" fill="#3F3D56"/>
<path d="M653.141 344.822C661.693 344.822 668.625 338.043 668.625 329.682C668.625 321.32 661.693 314.541 653.141 314.541C644.59 314.541 637.657 321.32 637.657 329.682C637.657 338.043 644.59 344.822 653.141 344.822Z" fill="#FBBEBE"/>
<path d="M683.644 419.073C683.582 421.968 683.162 424.844 682.393 427.64C681.66 431.112 680.714 434.538 679.56 437.9C678.668 440.34 677.551 442.788 677.559 445.375C677.559 446.452 677.739 447.646 677.064 448.496C676.463 449.093 675.706 449.517 674.876 449.72C674.461 449.828 674.078 450.029 673.758 450.308C673.438 450.587 673.189 450.935 673.032 451.325C672.328 450.297 671.802 449.163 671.473 447.969C670.129 443.943 668.88 439.895 667.726 435.826C667.62 435.591 667.575 435.336 667.593 435.08C667.611 434.825 667.693 434.578 667.831 434.36C668.021 434.198 668.243 434.076 668.483 434.001C669.251 433.695 669.955 433.252 670.559 432.696C670.842 432.45 671.076 432.155 671.248 431.824C671.466 431.299 671.566 430.734 671.541 430.168C671.541 428.226 671.54 426.291 671.488 424.349C671.457 422.556 671.527 420.763 671.698 418.978C671.698 418.626 671.765 418.062 671.825 417.461C671.938 416.31 672.163 414.976 672.8 414.529C673.751 413.906 676.599 414.742 677.679 414.888C679.537 415.138 681.426 415.431 683.24 415.775C683.503 416.856 683.639 417.962 683.644 419.073Z" fill="#3F3D56"/>
<path d="M621.124 346.632C620.524 347.805 619.085 348.369 617.976 349.109L614.176 351.659C613.923 351.883 613.625 352.054 613.302 352.162C612.978 352.271 612.636 352.314 612.295 352.29C611.986 352.178 611.703 352.007 611.462 351.787C611.221 351.566 611.028 351.301 610.894 351.007C610.896 350.988 610.896 350.968 610.894 350.948L610.107 349.659L606.36 343.518C605.943 342.968 605.701 342.31 605.663 341.627C605.663 341.312 605.775 341.019 605.805 340.703C605.815 339.818 605.554 338.951 605.055 338.212C604.756 337.662 604.156 337.208 604.171 336.592C604.142 335.783 604.285 334.977 604.591 334.225C604.984 333.529 605.548 332.94 606.232 332.51C606.584 332.261 606.944 332.027 607.319 331.777C607.518 331.645 607.738 331.546 607.971 331.484C608.593 331.36 609.207 331.865 609.837 331.887C612.543 333.661 613.584 337.017 615.713 339.436C616.912 340.813 617.032 341.869 618.388 343.1C618.606 343.29 618.816 343.495 619.018 343.708C619.286 343.994 619.513 344.315 619.692 344.661C619.94 345.291 621.431 346.031 621.124 346.632Z" fill="#3F3D56"/>
<path d="M647.7 344.829C648.817 347.138 649.686 349.673 649.364 352.209C649.298 352.896 649.075 353.559 648.712 354.151C647.633 355.77 645.369 356.064 643.398 356.159C642.983 356.125 642.565 356.172 642.168 356.298C641.772 356.424 641.405 356.626 641.09 356.892C640.826 357.266 640.698 357.715 640.723 358.169C640.749 358.622 640.928 359.055 641.232 359.398C641.866 360.059 642.652 360.562 643.526 360.864C646.643 362.205 650.008 363.311 653.396 363.004C654.97 362.857 656.499 362.41 658.065 362.183C659.773 362.002 661.489 361.909 663.206 361.904C665.245 361.831 667.276 361.633 669.307 361.435L674.688 360.915C674.982 360.919 675.268 360.817 675.49 360.629C675.887 360.175 675.378 359.508 674.883 359.164C672.027 357.097 668.393 355.675 666.766 352.568C666.017 351.102 665.784 349.358 665.23 347.775C664.675 346.192 663.791 344.763 663.446 343.151C663.262 341.737 663.18 340.312 663.199 338.886C663.218 337.448 662.683 336.057 661.7 334.987C660.628 334.013 659.077 333.763 657.623 333.705C654.04 333.551 650.226 334.386 647.685 336.856C647.003 337.523 646.418 338.322 645.714 338.923C645.009 339.524 644.05 339.699 644.515 340.491C644.979 341.282 645.894 341.773 646.388 342.47C646.889 343.221 647.328 344.01 647.7 344.829Z" fill="#FBBEBE"/>
<path d="M678.225 366.148C677.28 371.791 675.743 377.323 673.639 382.658C672.581 385.067 671.68 387.54 670.941 390.06C670.364 392.332 670.476 394.765 669.944 397.044C669.284 399.88 668.625 402.723 668.093 405.581C667.2 409.946 666.843 414.399 667.028 418.846C667.03 419.546 667.168 420.24 667.433 420.89C667.681 421.418 668.078 421.872 668.31 422.415C668.484 422.891 668.555 423.397 668.519 423.902C668.483 424.406 668.34 424.898 668.1 425.346C667.716 426.185 667.194 426.957 666.556 427.633C659.571 429.67 652.099 429.003 644.822 429.435C638.114 429.831 631.332 431.179 624.721 430.058C623.972 427.127 625.223 424.056 626.295 421.198C629.405 412.895 632.845 404.248 632.291 395.549C632.233 394.534 632.115 393.524 631.939 392.522C630.852 386.359 632.036 379.976 633.932 374.003C635.109 370.281 635.056 366.316 634.787 362.439C634.653 361.181 634.635 359.912 634.734 358.651C634.843 357.362 635.332 356.132 636.143 355.111C636.143 355.06 636.211 355.008 636.248 354.957C636.285 354.906 636.578 354.913 636.81 354.957C636.869 354.982 636.933 354.994 636.997 354.994C637.062 354.994 637.126 354.982 637.185 354.957L637.267 354.906C637.299 354.884 637.337 354.872 637.376 354.872C637.415 354.872 637.453 354.884 637.485 354.906C637.657 355.008 637.754 355.36 638.129 355.426C638.683 355.508 639.241 355.559 639.801 355.58C640.474 355.6 641.142 355.693 641.794 355.858H641.884C642.859 356.019 643.859 355.936 644.792 355.617C645.413 355.465 646.012 355.238 646.576 354.942C646.741 354.767 647.775 354.605 647.985 354.481C648.667 354.078 648.517 352.187 648.659 351.41C648.738 350.631 648.927 349.866 649.221 349.138C649.563 348.601 650.034 348.154 650.593 347.835C651.152 347.517 651.782 347.338 652.429 347.314C653.719 347.284 655.009 347.397 656.274 347.651C659.069 348.039 661.932 347.973 664.675 348.603C666.054 348.918 667.561 349.395 668.827 348.779C669.172 348.86 669.224 349.153 669.224 349.512C669.192 349.853 669.122 350.19 669.015 350.516C668.535 352.539 670.161 354.4 671.66 355.866C672.293 356.557 673.041 357.139 673.871 357.588C674.621 357.925 675.37 358.064 676.119 358.431C676.726 358.747 677.242 359.209 677.618 359.772C678.05 360.417 678.341 361.144 678.473 361.904C678.634 363.322 678.55 364.757 678.225 366.148Z" fill="#3F3D56"/>
<path opacity="0.1" d="M678.226 366.148C677.281 371.791 675.744 377.323 673.639 382.658C672.581 385.067 671.68 387.54 670.941 390.06C670.364 392.332 670.476 394.765 669.944 397.044C669.285 399.88 668.625 402.723 668.093 405.582C667.936 405.669 667.771 405.75 667.606 405.823C666.673 406.259 665.685 406.569 664.668 406.747C662.841 406.963 660.99 406.904 659.182 406.571L648.487 405.171C644.215 404.607 639.666 403.925 636.496 401.097C634.734 399.543 633.58 397.491 632.314 395.512C632.255 394.498 632.138 393.487 631.961 392.486C630.875 386.323 632.059 379.94 633.955 373.967C635.132 370.244 635.079 366.279 634.809 362.403C634.676 361.144 634.658 359.876 634.757 358.614C634.865 357.325 635.355 356.095 636.166 355.074C636.385 355.012 636.607 354.963 636.833 354.928C636.984 354.898 637.136 354.878 637.29 354.869H637.507C637.76 354.87 638.011 354.9 638.257 354.957C638.767 355.116 639.268 355.304 639.756 355.521H639.846C640.488 355.728 641.163 355.823 641.839 355.8C642.829 355.8 643.848 355.646 644.837 355.58C646.059 355.393 647.31 355.613 648.39 356.203C649.086 356.75 649.747 357.34 650.368 357.969C651.118 358.545 651.962 358.993 652.864 359.295C659.315 361.703 666.472 361.556 672.814 358.885C673.424 358.546 674.115 358.374 674.816 358.387C675.333 358.486 675.823 358.691 676.255 358.988C676.704 359.244 677.146 359.493 677.604 359.72C678.036 360.366 678.326 361.092 678.458 361.853C678.63 363.287 678.551 364.739 678.226 366.148Z" fill="black"/>
<path d="M684.753 361.296C681.769 360.405 678.901 359.175 676.209 357.632C675.777 357.337 675.287 357.132 674.77 357.031C674.068 357.023 673.376 357.195 672.762 357.529C666.422 360.2 659.268 360.347 652.819 357.94C651.918 357.635 651.075 357.187 650.323 356.613C649.7 355.987 649.039 355.397 648.344 354.847C645.879 353.286 642.469 355.118 639.711 354.114C639.221 353.901 638.721 353.712 638.212 353.55C636.031 353.015 633.812 355.14 631.669 354.495C630.871 356.615 630.282 358.804 629.908 361.032C629.603 363.592 629.44 366.165 629.421 368.742C629.421 370.288 629.346 371.834 629.421 373.381C629.685 373.423 629.937 373.518 630.162 373.661C630.386 373.803 630.578 373.99 630.725 374.209C630.823 374.464 630.863 374.737 630.843 375.009C630.822 375.282 630.741 375.546 630.605 375.784C629.038 379.72 627.45 383.699 625.074 387.224C626.748 388.199 628.302 389.36 629.705 390.683C632.329 393.394 633.618 397.198 636.451 399.704C639.643 402.526 644.192 403.214 648.442 403.771L659.137 405.171C660.948 405.503 662.8 405.564 664.63 405.354C665.645 405.173 666.631 404.86 667.561 404.424C668.168 404.175 668.722 403.817 669.195 403.368C669.59 402.93 669.916 402.436 670.161 401.903C671.008 400.246 671.78 398.554 672.492 396.839C672.739 396.23 673.114 395.52 673.789 395.468C677.761 391.965 681.508 388.374 685.48 384.872C687.077 383.578 688.508 382.102 689.745 380.474C691.716 377.624 689.925 373.586 689.745 370.141C689.723 369.26 689.61 368.384 689.407 367.525C688.763 365.026 687.249 362.036 684.753 361.296Z" fill="#536DFE"/>
<path opacity="0.1" d="M621.124 346.632C620.524 347.805 619.085 348.369 617.976 349.109L614.176 351.659C613.923 351.883 613.625 352.054 613.302 352.162C612.978 352.271 612.636 352.314 612.295 352.289C611.986 352.178 611.703 352.007 611.462 351.787C611.222 351.566 611.028 351.301 610.894 351.007C610.894 350.838 610.894 350.655 610.894 350.479C610.865 349.886 610.946 349.293 611.134 348.728C611.506 347.899 612.083 347.174 612.812 346.617C614.223 345.311 615.902 344.312 617.736 343.686C618.022 343.577 618.333 343.547 618.636 343.598C618.752 343.628 618.863 343.675 618.965 343.737C619.234 344.023 619.461 344.344 619.64 344.69C619.94 345.291 621.431 346.031 621.124 346.632Z" fill="black"/>
<path d="M630.073 354.356C628.799 354.298 627.757 353.396 626.828 352.539L623.987 349.959C623.797 349.802 623.63 349.619 623.492 349.417C623.339 349.132 623.223 348.829 623.148 348.515C622.545 347.035 621.602 345.711 620.39 344.646C620.178 344.384 619.895 344.185 619.573 344.074C619.268 344.019 618.954 344.05 618.666 344.162C616.831 344.787 615.152 345.786 613.742 347.094C613.013 347.651 612.436 348.376 612.063 349.204C611.875 349.769 611.793 350.363 611.823 350.956C611.841 352.892 612.286 354.802 613.127 356.555C613.255 356.826 613.397 357.097 613.547 357.361C614.547 358.977 615.729 360.479 617.07 361.838L618.853 363.788C620.607 365.708 622.361 367.628 624.264 369.394C624.947 370.106 625.774 370.67 626.693 371.05C627.154 371.234 627.658 371.291 628.15 371.213C628.642 371.135 629.102 370.927 629.481 370.61C629.84 370.204 630.11 369.73 630.275 369.218C631.429 366.287 632.523 363.238 632.591 360.08C632.607 358.815 632.552 357.55 632.426 356.291C632.314 354.957 631.347 354.437 630.073 354.356Z" fill="#536DFE"/>
<path d="M675.49 456.953C675.447 464.325 674.911 471.686 673.886 478.99C673.736 480.17 673.571 481.35 673.489 482.529C673.242 485.952 673.646 489.389 673.317 492.789C673.144 494.629 672.754 496.453 672.425 498.249C670.96 506.262 670.532 514.424 671.151 522.542C672.185 536.048 669.015 549.562 670.454 563.032C670.628 565.651 670.48 568.281 670.011 570.866C669.743 572.469 669.355 574.052 668.85 575.6C667.756 579.269 666.656 582.933 665.552 586.592C665.422 587.149 665.166 587.67 664.803 588.117C664.42 588.44 663.972 588.68 663.487 588.82C663.003 588.96 662.493 588.998 661.992 588.93C657.668 588.798 653.598 586.973 649.671 585.193C649.219 585.018 648.801 584.771 648.434 584.46C647.618 583.632 647.685 582.327 647.325 581.235C646.966 580.143 645.991 579.117 645.437 577.996C644.981 576.935 644.705 575.809 644.62 574.662C644.12 570.91 643.78 567.143 643.6 563.361C643.316 558.041 646.913 553.146 648.097 547.972C650.346 537.8 648.442 526.895 652.437 517.244C653.696 514.195 651.867 510.502 651.687 507.219C651.622 505.101 651.341 502.994 650.848 500.931C650.098 498.175 648.517 495.581 648.404 492.723C648.322 490.657 649.004 488.641 649.356 486.604C649.824 483.606 649.781 480.553 649.229 477.568C648.832 475.106 648.225 472.643 647.618 470.24L647.483 470.511C645.657 474.001 644.086 477.613 642.784 481.32C642.184 483.116 641.659 484.948 640.91 486.692C640.295 488.158 639.538 489.499 638.796 490.876C636.135 495.735 633.819 500.767 631.864 505.936C630.935 508.472 630.118 511.066 629.308 513.609L623.755 531.197C622.256 535.821 620.614 540.292 619.146 544.908C617.07 551.504 614.993 558.041 612.58 564.49C610.332 570.609 607.656 576.948 608.458 583.412C606.392 584.361 604.122 584.811 601.84 584.723C597.978 584.389 594.188 583.49 590.599 582.056C589.167 581.536 587.683 580.949 586.716 579.799C585.052 577.813 585.465 574.903 585.967 572.375C586.156 571.236 586.457 570.117 586.866 569.033C587.436 567.685 588.365 566.491 588.95 565.157C590.126 562.599 590.201 559.704 590.666 556.927C591.131 554.15 592.165 551.218 594.593 549.709C595.005 544.828 597.059 540.013 598.191 535.242C599.045 531.629 599.33 527.914 600.004 524.25C600.679 520.586 601.765 516.921 604.029 513.953C603.85 510.893 604.557 507.845 606.067 505.159C606.432 504.57 606.731 503.943 606.959 503.291C607.099 502.654 607.179 502.007 607.199 501.356C607.447 498.809 608.56 496.418 610.362 494.563C609.612 491.888 610.654 489.096 611.591 486.501C612.771 483.191 613.305 479.693 613.165 476.19C613.049 475.212 613.097 474.222 613.307 473.259C613.517 472.526 613.929 471.903 614.169 471.2C614.383 470.338 614.496 469.455 614.506 468.569C614.799 464.604 616.44 460.867 618.254 457.327C619.333 455.26 618.419 452.454 618.643 450.153C619.033 446.327 619.46 442.37 621.401 439.035C621.761 438.405 622.151 437.804 622.473 437.152C622.864 436.221 623.075 435.227 623.095 434.221C623.163 432.543 623.402 431.15 622.788 429.589C626.798 426.328 632.269 425.412 637.485 425.192C642.701 424.972 647.977 425.434 653.081 424.349C654.58 424.02 656.079 423.565 657.66 423.345C661.25 422.832 664.893 423.631 668.438 424.423C668.19 426.621 669.015 428.732 669.937 430.776C673.536 439.058 675.423 447.955 675.49 456.953Z" fill="#33313F"/>
<path opacity="0.1" d="M657.84 458.632L649.229 477.568C648.832 475.106 648.225 472.643 647.618 470.24L647.483 470.511V470.115L652.174 460.024L657.84 458.632Z" fill="black"/>
<path opacity="0.1" d="M683.644 419.073C683.147 419.436 682.554 419.653 681.935 419.696C680.986 419.729 680.038 419.602 679.132 419.322L672.387 417.673C672.176 417.622 671.97 417.551 671.773 417.461C671.885 416.31 672.11 414.976 672.747 414.529C673.699 413.906 676.547 414.742 677.626 414.888C679.485 415.138 681.373 415.431 683.187 415.775C683.468 416.854 683.621 417.96 683.644 419.073Z" fill="black"/>
<path d="M689.348 375.469C689.49 376.077 689.692 376.678 689.812 377.294C690.014 378.804 689.961 380.337 689.655 381.83L689.04 386.022L688.426 390.236L686.05 406.454L685.465 410.469L684.641 416.076C684.602 416.542 684.48 416.998 684.281 417.424C684.036 417.822 683.693 418.155 683.283 418.391C682.874 418.628 682.411 418.762 681.935 418.78C680.986 418.809 680.039 418.683 679.132 418.406L672.387 416.75C672.092 416.698 671.811 416.586 671.563 416.42C671.357 416.223 671.208 415.976 671.132 415.704C671.055 415.433 671.054 415.146 671.128 414.874C671.226 414.317 671.473 413.797 671.555 413.24C671.72 412.155 671.256 411.041 671.42 409.964C671.582 409.278 671.834 408.615 672.17 407.992C674.418 403.134 673.114 397.462 673.879 392.185C674.567 388.032 676.361 384.13 679.08 380.87C680.758 378.813 682.686 376.962 684.821 375.359C685.66 374.722 686.994 373.41 688.051 373.161C689.408 372.882 689.123 374.546 689.348 375.469Z" fill="#536DFE"/>
<path d="M638.302 312.343C637.807 313.882 638.579 315.574 638.227 317.143C637.845 318.872 636.181 320.074 635.709 321.811C634.959 324.456 637.253 326.867 638.931 329.066C645.152 337.23 644.335 348.53 642.206 358.489C640.494 366.48 638.125 374.322 635.124 381.94C634.187 384.307 633.153 386.711 631.309 388.484C634.757 387.517 638.422 386.542 641.877 387.48C646.254 388.668 650.031 392.823 654.468 391.877C657.136 391.298 659.009 388.983 661.408 387.7C665.904 385.333 671.323 386.821 676.337 387.583C677.417 387.832 678.548 387.776 679.597 387.422C680.399 387 681.08 386.388 681.576 385.641C683.813 382.834 685.153 379.443 685.428 375.894C685.546 374.127 685.28 372.355 684.645 370.697C684.011 369.038 683.023 367.53 681.748 366.272C680.684 365.29 679.41 364.499 678.593 363.341C677.798 361.988 677.373 360.459 677.356 358.9C676.764 350.839 678.773 342.609 676.704 334.811C675.955 332.034 674.733 329.374 674.403 326.53C673.991 322.991 674.973 319.202 673.534 315.963C672.402 313.391 669.907 311.566 667.216 310.628C664.525 309.69 661.647 309.426 658.792 309.162C654.685 308.825 640.018 307.103 638.302 312.343Z" fill="#33313F"/>
<g opacity="0.1">
<path opacity="0.1" d="M642.207 358.489C640.502 366.447 638.146 374.257 635.162 381.845C635.679 380.841 636.113 379.786 636.526 378.738C639.53 371.121 641.899 363.278 643.608 355.287C645.744 345.32 646.561 334.035 640.34 325.863C638.841 323.914 636.915 321.804 636.983 319.517C636.429 320.209 635.998 320.987 635.709 321.818C634.959 324.464 637.253 326.875 638.931 329.073C645.152 337.23 644.335 348.53 642.207 358.489Z" fill="black"/>
<path opacity="0.1" d="M638.317 316.403C638.918 315.672 639.367 314.833 639.636 313.933C639.752 312.844 639.722 311.745 639.546 310.664C638.969 311.089 638.535 311.674 638.302 312.343C637.86 313.64 638.369 315.047 638.317 316.403Z" fill="black"/>
<path opacity="0.1" d="M682.985 382.416C682.488 383.161 681.808 383.771 681.006 384.19C679.958 384.552 678.826 384.608 677.746 384.351C672.732 383.618 667.253 382.109 662.817 384.476C660.411 385.751 658.545 388.067 655.869 388.653C651.44 389.62 647.663 385.465 643.286 384.256C640.183 383.413 636.915 384.109 633.79 384.989C633.169 386.284 632.331 387.468 631.309 388.492C634.757 387.524 638.422 386.55 641.877 387.488C646.254 388.675 650.031 392.83 654.468 391.885C657.136 391.306 659.009 388.99 661.408 387.708C665.904 385.34 671.323 386.828 676.337 387.59C677.417 387.84 678.548 387.784 679.597 387.429C680.399 387.007 681.08 386.395 681.576 385.648C682.934 383.896 683.983 381.935 684.678 379.844C684.178 380.74 683.612 381.6 682.985 382.416Z" fill="black"/>
</g>
</g>
<defs>
<linearGradient id="paint0_linear" x1="576.036" y1="448.804" x2="690.704" y2="448.804" gradientUnits="userSpaceOnUse">
<stop stop-color="#808080" stop-opacity="0.25"/>
<stop offset="0.54" stop-color="#808080" stop-opacity="0.12"/>
<stop offset="1" stop-color="#808080" stop-opacity="0.1"/>
</linearGradient>
<clipPath id="clip0">
<rect width="874" height="590" fill="white"/>
</clipPath>
</defs>
</svg>
