<svg width="40" height="39" viewBox="0 0 40 39" fill="none" xmlns="http://www.w3.org/2000/svg">
<g clip-path="url(#clip0)">
<path d="M8.77665 15.8681C9.55646 13.5679 11.0614 11.5664 13.0768 10.1494C15.0923 8.7324 17.5152 7.97215 20 7.97712C22.8167 7.97712 25.3633 8.95213 27.3633 10.5479L33.1833 4.875C29.6367 1.86063 25.0917 0 20 0C12.1167 0 5.32998 4.38425 2.06665 10.8063L8.77665 15.8681Z" fill="#EA4335"/>
<path d="M26.7334 29.2711C24.9167 30.4135 22.61 31.0229 20 31.0229C17.5252 31.0278 15.1114 30.2736 13.1004 28.8671C11.0895 27.4605 9.58328 25.4728 8.79504 23.1855L2.06171 28.1694C3.71378 31.4296 6.27049 34.1727 9.44141 36.0873C12.6123 38.0018 16.2704 39.0109 20 39C24.8884 39 29.5584 37.3051 33.0567 34.125L26.735 29.2711H26.7334Z" fill="#34A853"/>
<path d="M33.0567 34.125C36.715 30.797 39.09 25.844 39.09 19.5C39.09 18.3463 38.9083 17.1064 38.6367 15.9543H20V23.4894H30.7267C30.1983 26.0228 28.7767 27.9841 26.735 29.2711L33.0567 34.125Z" fill="#4A90E2"/>
<path d="M8.7947 23.1855C8.38696 21.9975 8.17982 20.7528 8.18137 19.5C8.18137 18.2292 8.3897 17.0089 8.77637 15.8681L2.06637 10.8062C0.693669 13.5081 -0.0139549 16.4848 -0.00029419 19.5C-0.00029419 22.62 0.741372 25.5612 2.06137 28.1694L8.7947 23.1855Z" fill="#FBBC05"/>
</g>
<defs>
<clipPath id="clip0">
<rect width="40" height="39" fill="white"/>
</clipPath>
</defs>
</svg>
